<mxfile host="app.diagrams.net" modified="2024-07-11T05:20:11.816Z" agent="Mozilla/5.0 (Macintosh; Intel Mac OS X 10_15_7) AppleWebKit/537.36 (KHTML, like Gecko) Chrome/126.0.0.0 Safari/537.36" version="24.6.4" etag="1BteqZeGRwxo8zy7PMuy" type="github">
  <diagram name="Page-1" id="q5e9T3QuVF80p8WnrTcL">
    <mxGraphModel>
      <root>
        <mxCell id="0" />
        <mxCell id="1" parent="0" />
      </root>
    </mxGraphModel>
  </diagram>
</mxfile>
